<?xml version="1.0" encoding="UTF-8" standalone="no"?><!DOCTYPE svg PUBLIC "-//W3C//DTD SVG 1.1//EN" "http://www.w3.org/Graphics/SVG/1.1/DTD/svg11.dtd"><svg width="100%" height="100%" viewBox="0 0 3883 2947" version="1.1" xmlns="http://www.w3.org/2000/svg" xmlns:xlink="http://www.w3.org/1999/xlink" xml:space="preserve" xmlns:serif="http://www.serif.com/" style="fill-rule:evenodd;clip-rule:evenodd;stroke-linejoin:round;stroke-miterlimit:2;"><g><path d="M3542.71,412.219c-11.779,73 -41.213,138.766 -84.825,198.291c-4.375,5.971 -9.467,11.9 -15.458,16.092c-7.371,5.158 -16.038,8.471 -24.142,12.579c-4.117,-9.404 -8.233,-18.808 -11.804,-26.962c11.971,-54.113 27.637,-103.675 54.962,-148.567c14.871,-24.429 32.496,-47.362 50.692,-69.487c4.892,-5.951 16.408,-6.463 24.887,-9.471c2.05,9.2 7.084,18.879 5.688,27.525Zm-1038.45,77.991c-2.75,91.8 -24.729,178.563 -67.217,260.067c-1.258,2.412 -2.633,5.146 -4.725,6.679c-6.75,4.938 -13.858,9.383 -20.829,14.017c-3.275,-7.154 -9.562,-14.409 -9.321,-21.442c1.434,-42.304 -0.966,-85.758 8.184,-126.525c10.85,-48.329 31.52,-94.546 49.233,-141.183c4.229,-11.129 12.808,-21.042 21.033,-30.008c3.279,-3.58 11.617,-5.159 16.509,-3.734c3.391,0.992 6.275,8.513 6.825,13.404c1.058,9.467 0.308,19.138 0.308,28.725Zm-352.733,94.079c10.929,-78.779 18.275,-158.454 35.808,-235.795c14.429,-63.667 40.733,-124.73 63.346,-186.375c3.646,-9.93 15.496,-16.859 23.554,-25.175c4.654,11.362 12.554,22.479 13.442,34.129c6.262,82.175 -13.688,160.679 -34.963,239.091c-19.325,71.238 -46.683,138.896 -84.25,202.426c-3.746,6.337 -8.237,12.237 -12.383,18.337c-1.617,-0.329 -3.233,-0.654 -4.85,-0.983c-0,-15.234 -1.775,-30.709 0.296,-45.655Zm1716.6,201.505c-25.391,-42.309 -67.824,-60.442 -113.724,-71.096c-33.459,-7.767 -67.292,-13.904 -100.88,-21.134c-53.996,-11.624 -75.958,-42.491 -62.229,-95.749c14.354,-55.692 33.717,-110.092 50.65,-165.134c5.45,-17.712 11.171,-35.454 14.892,-53.566c4.229,-20.592 -6.267,-45.984 -20.942,-46.255c-20.917,-0.383 -29.183,-13.741 -40.667,-26.375c-6.991,-7.695 -17.491,-13.35 -27.483,-16.979c-28.479,-10.337 -56.708,-1.996 -77.654,15.088c-35.892,29.275 -70.054,61.612 -100.267,96.679c-46.5,53.975 -87.675,112.512 -133.879,166.762c-22,25.834 -49.129,47.896 -76.304,68.559c-20.233,15.387 -33.625,8.225 -40.058,-16.788c-1.184,-4.608 -1.767,-9.446 -2.017,-14.208c-3.229,-61.959 19.608,-117.175 46.262,-170.846c17.725,-35.692 38.192,-70.113 71.925,-94.05c12.18,-8.646 24.125,-17.213 38.921,-11.562c-12.104,15.683 -25.25,29.699 -34.741,45.862c-9.671,16.467 -4.575,42.454 6.862,51.696c11.204,9.054 36.542,6.15 51.875,-5.746c20.742,-16.087 31.917,-37.679 34.763,-63.221c5.237,-46.975 -11.25,-74.071 -52.355,-84.8c-24.854,-6.487 -48.995,-1.342 -71.975,9.779c-56.441,27.313 -94.966,74.671 -127.974,124.455c-31.684,47.787 -54.051,101.708 -80.896,152.733c-8.359,15.891 -15.855,33.187 -40.85,40.687c0.958,-17.833 0.062,-32.737 2.837,-46.933c8.679,-44.45 20.021,-88.412 27.867,-132.996c6.262,-35.6 11.741,-71.791 12.312,-107.808c0.475,-29.863 -30.692,-47.917 -57.616,-34.834c-15.434,7.5 -30.959,19.442 -40.546,33.417c-24.804,36.15 -46.404,74.496 -69.142,112.046c-7.967,13.154 -15.525,26.558 -23.271,39.85c-3.441,-7.446 -3.016,-13.279 -2.471,-19.1c3.588,-38.296 7.346,-76.579 10.755,-114.892c1.766,-19.866 -2.175,-37.162 -23.255,-45.587c-16.987,-6.792 -37.087,-1.117 -50.562,17.554c-14.396,19.95 -28.142,40.733 -39.229,62.637c-35.654,70.438 -69.55,141.763 -104.971,212.321c-14.008,27.9 -30.25,54.684 -45.479,81.975c-5.938,-6.42 -8.642,-11.629 -7.963,-16.35c4.192,-29.15 9.1,-58.2 13.85,-87.27c9.95,-60.892 20.663,-121.676 29.525,-182.725c2.892,-19.905 -7.216,-36.234 -25.191,-46.076c-18.013,-9.866 -35.855,-5.737 -49.871,6.942c-17.363,15.709 -33.017,32.204 -59.692,26.396c-3.258,-0.713 -8.267,2.104 -11.121,4.742c-21.979,20.291 -47.429,38.187 -64.691,61.97c-61.642,84.934 -91.755,184.046 -117.159,283.98c-20.066,78.937 -53.291,151.216 -96.35,219.429c-6.654,10.541 -20.346,16.65 -30.783,24.808c-6.729,-12.108 -17.229,-23.579 -19.425,-36.458c-5.067,-29.725 -8.242,-60.15 -8.067,-90.271c0.125,-22.083 2.171,-46.379 11.596,-65.675c14.908,-30.525 37.258,-57.346 55.479,-86.346c29.975,-47.721 62.759,-94.146 87.759,-144.396c28.958,-58.208 53.35,-119.05 75.033,-180.4c24.342,-68.87 38.546,-140.441 31.821,-214.25c-2.042,-22.408 -4.921,-45.783 -13.234,-66.37c-20.387,-50.48 -56.445,-80.334 -101.158,-66.555c-22.787,7.021 -47.254,19.004 -63.142,36.029c-49.016,52.534 -71.15,120.342 -89.666,187.509c-20.771,75.342 -37.321,152.246 -49.459,229.45c-13.304,84.633 -22.925,170.191 -27.729,255.704c-4.229,75.192 -0.354,150.9 1.429,226.342c0.975,41.2 3.942,82.566 21.892,120.875c23.363,49.858 84.071,72.383 123.879,20.341c26.721,-34.937 46.729,-75.125 68.45,-113.687c11.259,-19.988 19.704,-41.554 29.425,-62.409c2.946,-1.545 5.892,-3.091 8.838,-4.637c4.267,7.121 7.483,15.208 13,21.175c14.579,15.771 51.133,23.321 68.804,11.592c21.437,-14.23 42.546,-30.192 59.892,-49c17.8,-19.3 30.887,-42.938 45.916,-64.509c35.696,19.113 62.538,15.304 85.667,-17.829c30.933,-44.317 58.213,-91.179 86.95,-137.017c6.296,-10.041 12.125,-20.375 18.167,-30.575c1.916,0.671 3.833,1.342 5.745,2.013c-0.562,7.092 -1.195,14.179 -1.687,21.275c-2.042,29.404 -6.621,58.921 -5.35,88.183c1.329,30.688 27.742,45.159 54.467,30.496c16.341,-8.966 33.583,-21.458 43.025,-36.879c34.687,-56.654 66.295,-115.192 99.025,-173.042c3.887,-6.875 7.546,-13.883 11.312,-20.829c2.942,11.009 0.875,20.742 0.275,30.567c-1.741,28.625 -5.808,57.517 -3.575,85.879c3.063,38.867 40.392,58.037 75.988,41.404c11.72,-5.475 22.429,-13.212 33.283,-20.396c11.204,-7.412 22.017,-15.408 34.421,-24.145c6.054,10.57 11.729,18.412 15.325,27.112c13.762,33.304 65.566,57.646 108.837,44.65c48.158,-14.467 85.267,-43.408 118.875,-78.675c7.213,-7.567 14.4,-15.15 25.305,-26.625c1.566,11.688 2.8,17.487 3.058,23.329c2.996,67.792 64.841,111.238 128.929,88.75c26.229,-9.204 50.796,-23.142 77.587,-35.612c2.629,6.533 6.321,13.829 8.546,21.546c10.05,34.854 37.359,50.795 69.055,57.833c48.262,10.708 97.374,17.562 146.016,26.633c7.096,1.321 13.596,5.842 25.808,11.321c-15.775,8.683 -25.233,17.358 -35.841,19.117c-41.317,6.845 -82.854,13.254 -124.567,16.625c-117.812,9.516 -235.992,15.02 -353.579,26.604c-154.775,15.246 -307.95,42.296 -455.838,91.067c-96.337,31.774 -191.758,67.879 -284.133,109.662c-111.437,50.413 -216.246,113.392 -315.042,186.55c-87.354,64.683 -172.637,131.483 -251.5,206.242c-86.875,82.358 -166.508,171.054 -234.191,270.066c-80.196,117.321 -144.659,242.596 -188.529,377.834c-12.884,39.708 -22.313,80.816 -12.584,123.545c5.938,26.063 20.471,42.484 46.779,49.05c40.946,10.217 72.809,-10.545 102.542,-32.262c53.742,-39.254 104.85,-82.079 158.05,-122.108c117.325,-88.28 234.15,-177.292 353.288,-263.084c108.291,-77.975 222.612,-146.591 345.837,-198.966c60.7,-25.805 121.134,-53.571 187.683,-61.221c13.767,-1.584 28.3,3.491 42.484,5.496c-8.084,15.037 -15.775,30.304 -24.517,44.945c-2.212,3.709 -7.65,5.63 -11.804,8.034c-56.396,32.641 -112.954,64.996 -169.204,97.887c-53.317,31.179 -107.954,60.484 -159.083,94.942c-81.959,55.237 -165.501,109.296 -240.988,172.629c-82.892,69.55 -157.658,148.8 -235.375,224.429c-14.175,13.792 -25.508,30.496 -39.796,47.85c6.146,0.671 7.929,1.429 8.688,0.85c3.758,-2.862 7.325,-5.991 10.816,-9.183c47.038,-43.054 93.488,-86.763 141.25,-128.996c38.467,-34.017 77.413,-67.691 118.246,-98.762c25.475,-19.384 55.679,-32.425 82.342,-50.413c113.579,-76.608 230.854,-147 352.475,-210.037c54.946,-28.475 111.175,-54.479 166.387,-82.45c36.304,-18.396 71.546,-38.788 94.1,-74.6c27.967,-44.405 10.613,-85.663 -39.758,-100.738c-35.638,-10.666 -70.692,-6.125 -103.675,4.292c-80.388,25.379 -162.308,48.737 -238.429,84.046c-88.046,40.841 -173.004,89.779 -254.813,142.191c-100.037,64.092 -195.862,134.817 -292.675,203.842c-90.8,64.737 -180.408,131.142 -270.904,196.308c-6.537,4.709 -16.054,5.284 -24.183,7.779c-0.934,-9.72 -4.804,-20.325 -2.188,-28.975c5.738,-18.958 12.629,-38.225 22.821,-55.087c40.809,-67.521 79.763,-136.513 125.504,-200.621c79.254,-111.079 173.225,-209.921 277.592,-297.6c88.742,-74.55 179.267,-147.779 274.637,-213.421c82.292,-56.641 171.467,-103.708 259.517,-151.483c102.238,-55.479 209.379,-100.6 320.538,-135.383c121.966,-38.163 246.012,-69.371 372.308,-87.938c141.4,-20.792 283.817,-34.817 425.908,-50.767c48.942,-5.495 96.25,-15.704 140.638,-37.254c56.933,-27.641 79.641,-98.421 47.341,-152.241Z" style="fill:#d51c4d;fill-rule:nonzero;"/><path d="M1145.31,1303.51c-19.209,-29.025 -20.946,-104.671 -3.7,-128.304c2.487,-3.413 7.879,-7.104 11.404,-6.646c2.962,0.388 6.65,6.325 7.462,10.325c5.963,29.263 -1.921,93.454 -15.166,124.625Zm-362.58,614.575c-17.225,55.617 -35.32,111.029 -55.362,165.679c-9.129,24.9 -23.179,48.154 -36.579,71.242c-3.521,6.062 -13.417,12.525 -19.496,11.758c-5.2,-0.658 -12.05,-10.966 -13.054,-17.758c-2.592,-17.583 -2.363,-35.583 -3.434,-56.942c4.388,-105.287 24.313,-210.641 70.725,-309.837c13.621,-29.108 29.925,-56.983 45.446,-85.179c2.896,-5.267 7.2,-10.459 12.15,-13.725c6.921,-4.567 15.063,-7.292 22.679,-10.8c3.438,8.229 9.692,16.4 9.867,24.7c1.6,75.412 -10.7,149.037 -32.942,220.862Zm525.905,-393.021c-23.534,-31.983 -51.034,-61.112 -77.525,-90.833c-6.817,-7.65 -16.634,-12.633 -25.075,-18.846c-2.338,0.671 -4.675,1.338 -7.013,2.004c1.133,-23.883 0.233,-48.083 3.858,-71.583c6.063,-39.371 16.696,-78.067 22.213,-117.492c4.433,-31.662 9.654,-64.846 4.812,-95.841c-10.795,-69.167 -79.533,-78.05 -116.833,-46.709c-19.033,15.992 -36.742,36.042 -48.458,57.796c-45.875,85.204 -29.184,169.009 13.879,249.425c15.383,28.721 27.375,53.338 13.475,87.583c-29.913,73.73 -55.675,149.142 -83.15,223.867c-12.267,33.358 -23.408,67.192 -37.163,99.929c-12.579,29.938 -27.987,58.684 -42.145,87.95c-3.321,-0.421 -6.642,-0.846 -9.959,-1.266c-1.554,-9.542 -5.062,-19.25 -4.266,-28.592c1.862,-21.808 4.57,-43.704 9.125,-65.1c13.008,-61.167 26.07,-122.133 23.995,-185.346c-1.05,-32.062 -16.27,-56.629 -45.366,-69.371c-36.35,-15.916 -67.429,-2.325 -96.671,17.217c-76.392,51.038 -127.25,124.346 -171.625,202.392c-40.433,71.108 -65.417,148.079 -81.242,228.241c-17.746,89.846 -31.491,179.979 -26.321,271.984c1.155,20.458 6.617,41.62 3.071,61.187c-6.091,33.575 -14.75,67.358 -27.6,98.917c-34.671,85.137 -67.971,171.212 -117.2,249.454c-22.579,35.887 -46.162,71.696 -73.662,103.804c-34.275,40.021 -73.738,38.908 -97.734,1.158c-6.904,-10.862 -12.491,-23.187 -15.791,-35.612c-31.171,-117.2 -37.45,-237.1 -31.517,-357.221c7.579,-153.396 33.196,-304.525 80.254,-450.862c30.204,-93.934 63.904,-187.175 103.038,-277.705c47.412,-109.679 117.996,-206.329 189.237,-301.754c27.096,-36.283 55.342,-72.296 87.234,-104.283c46.491,-46.633 95.895,-90.508 145.637,-133.75c57.875,-50.308 122.933,-85.229 202.742,-83.938c7.35,0.121 16.975,-0.608 21.637,-5.041c8.359,-7.946 17.988,-18.567 19.071,-28.909c0.908,-8.683 -7.546,-21.104 -15.429,-27.416c-21.017,-16.834 -48.075,-21.946 -72.563,-15.846c-45.087,11.233 -92.625,21.387 -132.17,44.096c-66.421,38.137 -129.596,82.916 -190.1,130.071c-83.113,64.775 -155.18,141.295 -216.209,227.55c-27.187,38.433 -53.116,77.746 -79.733,116.579c-20.913,30.504 -46.213,58.846 -62.2,91.721c-43.763,90.004 -85.813,180.987 -124.421,273.3c-36.029,86.141 -61.129,176.254 -78.992,267.941c-19.42,99.646 -37.362,199.642 -41.533,301.429c-4.758,116.334 -4.742,232.446 28.917,345.417c18.341,61.542 40.079,122.275 93.662,163.575c40.075,30.883 84.121,38.829 133.284,20.592c52.229,-19.379 88.891,-55.896 120.408,-99.438c64.246,-88.771 107.533,-188.037 145.167,-290.062c17.829,-48.338 34.866,-96.971 51.804,-145.629c4.354,-12.513 10.579,-16.017 24.554,-14.671c13.629,1.308 28.462,-2.304 41.767,-6.742c28.825,-9.617 40.941,-36.454 58.775,-58.183c44.316,-53.979 73.729,-115.484 99.17,-179.492c5.434,-13.679 10.846,-27.362 16.942,-42.746c9.6,8.771 16.413,15.388 23.633,21.521c16.263,13.804 36.021,14.879 51.792,3.892c17.867,-12.446 35.558,-28.296 46.558,-46.704c18.871,-31.575 34.809,-65.405 47.909,-99.834c54.933,-144.379 108.333,-289.341 162.425,-434.046c2.258,-6.037 5.8,-11.6 10.771,-21.37c7.491,11.429 13.466,18.741 17.504,27c32.075,65.625 58.791,133.15 68.521,206.125c11.712,87.866 10.679,174.416 -33.35,254.85c-4.8,8.775 -16.9,19.545 -24.842,18.958c-8.075,-0.596 -20.783,-13.463 -21.771,-22.063c-4.412,-38.516 -5.867,-77.408 -7.271,-116.204c-0.441,-12.229 2.596,-24.587 4.042,-36.883c-2.358,-1.375 -4.717,-2.746 -7.075,-4.117c-9.263,7.059 -21.283,12.334 -27.254,21.529c-15.184,23.388 -29.904,47.58 -40.8,73.155c-29.638,69.545 -25.921,135.025 23.779,196.675c31.408,38.958 97.475,51.175 138.692,33.987c47.658,-19.879 78.745,-58.283 100.845,-102.108c44.73,-88.688 63.1,-183.638 57.263,-283.125c-5.808,-98.992 -41.271,-187.088 -99.433,-266.138Z" style="fill:#d51c4d;fill-rule:nonzero;"/><path d="M1818.22,742.348c3.192,-122.946 5.346,-246.038 25.513,-367.75c6.604,-39.854 15.887,-79.304 25.195,-118.646c4.334,-18.329 10.242,-36.621 18.271,-53.592c3.384,-7.15 14.084,-10.846 21.459,-16.112c4.558,6.966 11.825,13.454 13.166,20.992c4.05,22.8 8.65,58.424 8.65,70.833l0,20.016c-3.3,166.817 -54.566,325.225 -103.483,483.601c-1.742,-0.063 -3.479,-0.13 -5.221,-0.192c-1.254,-13.05 -3.887,-26.138 -3.55,-39.15Zm-317.308,582.471c-5.454,20.1 -16.5,39.066 -27.234,57.22c-7.67,12.98 -19.758,11.4 -23.15,-3.254c-5.812,-25.129 -8.354,-51.012 -12.27,-76.579c5.291,-80.216 8.095,-159.962 29.27,-237.379c8.43,-30.808 21.142,-60.529 33.355,-90.15c2.154,-5.221 11.904,-10.896 17.362,-10.204c5.804,0.737 14.158,8.083 15.338,13.796c4.687,22.679 9.687,45.837 9.733,68.833c0.196,94.621 -17.733,186.846 -42.404,277.717Zm513.4,-520.409c-15.788,-37.591 -56.371,-46.258 -84.121,-15.946c-12.371,13.517 -23.954,29.03 -31.258,45.667c-28.429,64.754 -43.555,132.979 -45.242,203.679c-0.304,12.575 6.933,25.329 10.692,38c5.254,-11.775 11.245,-23.287 15.608,-35.383c9.912,-27.496 18.5,-55.479 28.925,-82.771c1.962,-5.125 9.962,-7.954 15.175,-11.842c3.062,6.263 9.342,12.896 8.671,18.734c-4.838,42.091 -9.246,84.408 -17.929,125.787c-2.859,13.629 -16.013,27.146 -27.855,36.363c-17.216,13.396 -34.3,8.104 -40.641,-12.625c-18.621,-60.879 -32.217,-122.359 -6.709,-185.154c8.217,-20.225 15.663,-40.805 22.509,-61.534c25.383,-76.895 51.616,-153.545 75.125,-231.016c19.329,-63.705 37.896,-127.863 52.041,-192.85c19.109,-87.784 34.346,-176.217 32.792,-267.05c-0.833,-48.542 -8.767,-94.204 -30.433,-137.096c-10.229,-20.25 -27.275,-33.192 -51.496,-36.504c-37.104,-5.075 -61.55,12.454 -81.629,40.666c-25.121,35.304 -38.009,75.425 -50.796,116.334c-34.571,110.595 -54.05,224.25 -68.158,338.596c-11.246,91.187 -17.625,183.195 -21.171,275.029c-2.959,76.687 0.462,153.679 2.712,230.487c1.417,48.475 9.813,96.963 -14.546,143.017c-14.404,27.233 -25.729,56.083 -39.575,83.633c-2.566,5.108 -10.254,9.296 -16.179,10.283c-2.441,0.409 -8.125,-8.354 -9.466,-13.666c-3.363,-13.275 -7.8,-27.129 -6.996,-40.463c3.75,-62.196 10.766,-124.225 13.358,-186.454c1.729,-41.525 0.779,-83.617 -4.137,-124.837c-4.434,-37.188 -39.538,-49.071 -71.313,-29.192c-6.675,4.179 -18.492,4.588 -26.25,1.887c-39.067,-13.608 -72.696,-7.016 -98.017,25.696c-16.625,21.475 -32.716,45.042 -41.833,70.271c-18.129,50.167 -34.754,101.4 -45.754,153.508c-21.883,103.65 -39.396,208.28 -29.821,315.026c3.933,43.883 9.809,87.712 36.604,125.058c12.129,16.904 25.109,32.579 47.954,35.987c41.955,6.254 81.501,-11.783 101.313,-50.537c16.833,-32.925 30.904,-67.283 45.512,-101.296c7.455,-17.35 13.405,-35.346 20.121,-53.283c5.829,1.57 8.492,2.1 11.021,3.004c47.163,16.858 72.579,11.45 97.575,-30.984c21.171,-35.941 37.171,-74.925 55.463,-112.554c3.158,-6.5 6.35,-12.979 10.941,-22.362c10.346,8.596 17.042,14.379 23.967,19.871c36.012,28.55 83.608,28.987 120.2,1.575c32.55,-24.388 55.017,-57.25 67.4,-94.459c19.458,-58.471 36.546,-118.071 49.308,-178.32c10.459,-49.363 17.192,-100.338 -3.662,-149.98Z" style="fill:#d51c4d;fill-rule:nonzero;"/></g></svg>