<?xml version="1.0" standalone="no"?>
<!DOCTYPE svg PUBLIC "-//W3C//DTD SVG 20010904//EN"
 "http://www.w3.org/TR/2001/REC-SVG-20010904/DTD/svg10.dtd">
<svg version="1.0" xmlns="http://www.w3.org/2000/svg"
 width="3883.000000pt" height="3883.000000pt" viewBox="0 0 3883.000000 3883.000000"
 preserveAspectRatio="xMidYMid meet">
<metadata>
Created by potrace 1.14, written by Peter Selinger 2001-2017
</metadata>
<g transform="translate(0.000000,3883.000000) scale(0.100000,-0.100000)"
fill="#000000" stroke="none">
<path d="M22885 34143 c-116 -23 -247 -69 -375 -129 -206 -97 -330 -197 -485
-389 -31 -38 -63 -78 -72 -89 -8 -10 -46 -66 -84 -125 -38 -58 -74 -111 -79
-118 -6 -7 -10 -15 -10 -18 0 -3 -11 -23 -24 -44 -99 -156 -256 -519 -356
-822 -120 -361 -295 -1021 -404 -1519 -20 -91 -41 -183 -46 -205 -10 -42 -85
-414 -95 -475 -4 -19 -13 -71 -21 -115 -17 -94 -60 -344 -68 -395 -14 -83 -58
-371 -67 -430 -5 -36 -11 -78 -14 -95 -4 -31 -13 -98 -19 -150 -2 -16 -7 -46
-10 -65 -9 -53 -15 -101 -21 -166 -3 -32 -8 -66 -10 -74 -2 -8 -7 -46 -10 -85
-4 -38 -8 -77 -10 -85 -2 -8 -7 -42 -10 -75 -3 -33 -8 -76 -10 -95 -3 -19 -7
-60 -10 -90 -3 -30 -8 -73 -10 -95 -3 -22 -7 -62 -10 -90 -3 -27 -7 -68 -9
-90 -5 -40 -14 -143 -21 -225 -2 -25 -6 -76 -10 -115 -3 -38 -7 -97 -10 -130
-3 -33 -7 -87 -9 -120 -3 -33 -8 -107 -12 -165 -4 -58 -8 -123 -9 -145 -21
-295 -26 -1132 -11 -1640 4 -143 9 -325 11 -405 11 -438 24 -697 41 -817 11
-81 24 -164 40 -249 24 -129 91 -328 154 -458 141 -293 405 -480 681 -485 111
-2 185 15 284 65 106 54 172 111 267 232 92 118 116 152 209 302 104 168 97
157 160 265 55 96 56 97 171 305 42 74 84 151 95 170 79 141 149 282 239 482
57 128 112 237 121 243 10 5 30 15 45 22 25 11 28 9 47 -23 12 -19 21 -37 21
-40 0 -16 78 -123 113 -156 67 -62 190 -116 329 -144 80 -15 226 -1 293 28 74
32 347 235 490 364 173 156 279 289 504 632 l104 159 71 -32 c154 -71 292 -94
414 -69 173 36 278 134 504 474 176 265 428 665 428 680 0 6 4 10 9 10 5 0 11
8 15 18 3 9 28 53 56 97 28 44 65 103 81 130 17 28 42 69 57 92 15 24 83 135
151 248 68 113 128 205 133 205 5 0 18 -5 30 -11 18 -10 19 -17 14 -72 -3 -34
-8 -93 -11 -132 -3 -38 -8 -90 -10 -115 -3 -25 -8 -79 -11 -120 -4 -41 -8 -88
-10 -105 -22 -220 -31 -520 -18 -615 7 -53 45 -141 81 -188 14 -19 46 -47 72
-63 125 -80 264 -68 440 37 187 111 316 231 396 369 11 19 68 115 126 212 58
98 114 194 125 213 10 19 22 37 27 38 4 2 7 8 7 12 0 7 108 200 195 350 8 14
65 115 127 225 61 110 147 263 191 340 44 77 92 163 107 190 15 28 36 66 47
85 44 77 82 147 103 189 19 38 24 42 32 27 10 -17 12 -182 3 -241 -2 -16 -7
-73 -10 -125 -3 -52 -8 -108 -10 -125 -13 -103 -20 -280 -19 -475 0 -203 2
-232 22 -297 69 -222 270 -361 505 -348 82 5 93 7 162 30 104 35 319 167 629
388 l120 85 52 -89 c29 -49 72 -128 96 -176 104 -211 274 -351 529 -437 42
-14 92 -28 110 -31 19 -2 59 -8 90 -13 61 -9 178 -8 249 2 107 16 324 94 467
167 78 40 121 65 248 142 29 18 236 172 266 199 14 13 46 40 70 61 74 64 176
166 344 342 l160 167 7 -49 c11 -68 16 -109 23 -178 5 -55 17 -153 20 -165 1
-3 4 -18 8 -35 4 -16 9 -40 11 -51 7 -37 66 -177 98 -233 103 -180 284 -333
483 -409 165 -64 392 -75 571 -28 152 39 260 85 612 257 134 65 250 119 257
119 11 0 76 -149 105 -245 71 -230 263 -409 533 -500 96 -32 457 -109 651
-139 21 -4 41 -8 45 -11 4 -2 25 -6 47 -9 33 -4 290 -47 374 -62 14 -3 43 -7
65 -10 22 -3 56 -9 75 -14 19 -5 53 -11 75 -15 22 -3 54 -8 70 -10 17 -3 42
-7 58 -9 15 -3 35 -7 45 -10 9 -3 35 -7 56 -11 67 -9 87 -17 194 -69 l103 -51
-113 -71 c-62 -38 -133 -80 -158 -92 -38 -17 -141 -40 -260 -57 -35 -5 -96
-15 -160 -25 -30 -5 -75 -12 -100 -15 -25 -3 -70 -10 -100 -15 -51 -9 -80 -12
-180 -25 -22 -3 -59 -7 -82 -10 -24 -3 -61 -8 -83 -11 -22 -2 -56 -6 -75 -9
-61 -8 -289 -28 -455 -40 -38 -3 -97 -7 -130 -10 -33 -3 -89 -7 -125 -10 -36
-2 -94 -7 -130 -9 -36 -3 -105 -8 -155 -11 -49 -3 -112 -8 -140 -10 -27 -2
-90 -7 -140 -10 -49 -3 -117 -7 -150 -10 -33 -2 -100 -7 -150 -10 -49 -3 -115
-8 -145 -10 -30 -3 -98 -7 -150 -10 -52 -3 -120 -8 -150 -10 -30 -2 -91 -7
-135 -10 -233 -15 -365 -25 -425 -30 -25 -2 -83 -7 -130 -10 -81 -6 -117 -8
-275 -20 -72 -6 -153 -12 -240 -20 -27 -3 -81 -7 -120 -10 -38 -3 -90 -8 -115
-10 -25 -3 -76 -7 -115 -10 -38 -3 -86 -7 -105 -10 -19 -2 -65 -7 -101 -10
-37 -2 -82 -7 -100 -9 -19 -3 -65 -8 -104 -11 -38 -4 -83 -8 -100 -10 -52 -7
-118 -14 -179 -21 -33 -3 -67 -7 -75 -9 -9 -1 -50 -6 -91 -10 -41 -4 -83 -9
-94 -11 -10 -2 -44 -6 -75 -9 -31 -4 -67 -8 -81 -10 -14 -2 -47 -7 -75 -10
-27 -3 -75 -10 -105 -15 -30 -5 -79 -12 -109 -15 -30 -4 -61 -8 -70 -10 -9 -1
-36 -6 -61 -9 -25 -3 -54 -8 -65 -10 -11 -2 -45 -7 -75 -11 -30 -4 -64 -9 -75
-11 -11 -2 -36 -6 -55 -9 -19 -3 -44 -6 -55 -9 -25 -5 -98 -17 -128 -21 -35
-5 -100 -15 -127 -21 -14 -2 -37 -7 -52 -9 -16 -3 -38 -7 -50 -9 -20 -3 -131
-24 -218 -40 -14 -2 -72 -14 -130 -25 -58 -11 -116 -22 -130 -25 -57 -10 -324
-68 -450 -97 -74 -17 -155 -35 -179 -40 -61 -13 -560 -138 -596 -150 -16 -5
-111 -32 -210 -60 -99 -28 -202 -57 -230 -65 -27 -8 -54 -16 -60 -18 -152 -41
-978 -319 -1305 -439 -381 -140 -876 -329 -945 -361 -16 -8 -100 -42 -185 -76
-132 -53 -239 -98 -395 -165 -31 -13 -73 -32 -405 -180 -164 -73 -822 -394
-870 -424 -8 -6 -80 -45 -160 -87 -80 -42 -198 -108 -264 -146 -65 -37 -120
-68 -121 -68 -2 0 -67 -38 -146 -85 -78 -47 -143 -85 -146 -85 -2 0 -16 -8
-31 -19 -15 -10 -106 -67 -202 -127 -226 -139 -517 -331 -810 -534 -103 -71
-541 -390 -550 -400 -3 -3 -30 -23 -60 -45 -64 -46 -66 -47 -105 -78 -16 -13
-127 -97 -245 -187 -185 -141 -542 -419 -605 -471 -11 -10 -72 -58 -135 -109
-63 -50 -129 -104 -145 -118 -17 -15 -53 -45 -80 -66 -28 -22 -54 -44 -60 -50
-5 -6 -30 -27 -55 -47 -25 -20 -56 -47 -70 -59 -14 -12 -47 -40 -75 -63 -55
-47 -150 -129 -289 -252 -6 -5 -36 -32 -67 -60 -30 -27 -99 -90 -154 -140
-346 -315 -879 -846 -1180 -1176 -22 -24 -65 -71 -95 -105 -72 -79 -112 -124
-189 -214 -36 -41 -70 -79 -76 -85 -5 -5 -33 -37 -60 -70 -28 -33 -52 -62 -55
-65 -3 -3 -27 -32 -55 -65 -27 -33 -57 -69 -67 -80 -9 -11 -61 -74 -113 -140
-53 -66 -104 -129 -113 -140 -67 -81 -399 -531 -473 -640 -30 -44 -57 -82 -60
-85 -22 -18 -413 -624 -548 -850 -34 -58 -67 -112 -72 -120 -20 -32 -110 -189
-152 -265 -25 -44 -54 -97 -65 -117 -12 -21 -37 -67 -57 -103 -19 -36 -51 -95
-72 -133 -44 -81 -260 -514 -301 -603 -119 -258 -157 -343 -206 -457 -93 -216
-154 -368 -222 -552 -36 -96 -71 -191 -79 -210 -105 -266 -252 -766 -280 -958
-3 -17 -7 -44 -9 -60 -24 -162 -22 -420 5 -540 5 -23 12 -59 15 -80 10 -63 62
-194 100 -251 116 -174 348 -282 594 -275 226 6 430 87 710 283 161 113 775
582 1050 804 8 7 35 28 60 47 25 19 52 41 60 47 8 7 74 58 145 114 72 55 139
108 150 117 11 10 45 35 75 57 30 22 64 47 75 57 11 9 45 35 75 57 30 22 60
44 65 48 6 5 28 22 50 38 22 17 42 32 45 35 7 7 716 541 750 565 16 11 332
247 702 526 370 278 743 557 828 619 85 63 160 118 165 123 24 19 491 361 598
437 64 47 139 101 166 120 651 469 1094 765 1626 1082 167 100 475 278 480
278 2 0 42 22 90 50 48 28 89 50 91 50 3 0 53 26 112 59 291 160 761 385 1187
568 83 35 159 68 170 73 191 90 667 277 898 355 208 69 494 144 617 161 24 3
47 7 51 9 3 2 34 8 70 12 101 13 257 7 344 -12 44 -9 94 -19 110 -21 54 -9 56
-10 43 -41 -7 -15 -29 -57 -49 -93 -20 -36 -55 -101 -79 -145 -106 -198 -110
-203 -195 -250 -27 -15 -79 -44 -115 -65 -36 -21 -81 -47 -100 -57 -19 -11
-80 -46 -135 -78 -55 -32 -188 -108 -295 -170 -107 -62 -211 -122 -230 -134
-19 -11 -51 -29 -70 -40 -19 -10 -242 -139 -495 -286 -253 -148 -485 -281
-515 -298 -30 -16 -59 -33 -65 -37 -5 -4 -26 -17 -46 -28 -347 -193 -850 -493
-1102 -657 -93 -61 -179 -117 -192 -125 -65 -43 -561 -376 -565 -380 -3 -3
-70 -49 -150 -103 -80 -53 -195 -132 -257 -175 -62 -42 -138 -95 -170 -117
-308 -212 -843 -608 -1008 -746 -11 -9 -101 -84 -200 -167 -99 -82 -189 -158
-200 -168 -11 -11 -72 -65 -135 -121 -63 -55 -124 -110 -135 -120 -11 -10 -49
-45 -85 -78 -183 -166 -550 -518 -941 -905 -563 -558 -924 -917 -956 -953 -36
-40 -303 -376 -303 -382 0 -1 16 -5 36 -7 45 -5 80 19 245 172 152 140 227
210 260 240 64 59 215 198 251 233 40 37 210 193 254 232 12 11 61 56 109 100
48 44 95 87 105 95 15 13 135 121 209 189 14 13 52 46 85 75 32 28 64 56 70
62 6 5 49 43 96 84 47 41 90 79 96 85 6 5 37 33 69 60 32 28 66 57 74 65 9 8
43 38 76 65 98 83 118 99 135 115 9 8 37 32 63 53 25 21 52 43 59 50 7 7 47
39 88 71 41 33 77 63 80 66 3 3 86 69 185 147 220 172 351 258 620 407 179
100 270 157 535 333 276 184 391 259 680 442 124 79 241 153 260 166 75 48
639 390 735 445 17 10 64 37 105 62 41 25 95 56 120 70 25 14 86 49 135 78 50
29 110 64 135 78 25 14 95 53 155 87 61 34 137 77 170 95 33 18 95 53 138 77
43 24 88 48 100 53 12 6 36 18 52 28 17 11 84 47 150 82 66 34 125 66 130 70
33 23 723 372 1050 530 453 219 1067 529 1180 597 126 76 268 174 330 228 386
339 531 699 399 992 -119 261 -440 419 -874 428 -266 5 -404 -21 -835 -158
-60 -20 -171 -54 -245 -77 -284 -88 -335 -104 -673 -216 -192 -63 -376 -125
-410 -138 -34 -12 -154 -58 -267 -101 -113 -42 -218 -83 -235 -91 -16 -7 -77
-33 -135 -57 -283 -120 -1009 -477 -1215 -597 -16 -9 -55 -31 -85 -47 -64 -35
-358 -200 -380 -213 -8 -5 -55 -33 -105 -61 -559 -321 -1330 -814 -1985 -1270
-129 -90 -265 -184 -301 -209 -90 -62 -436 -307 -705 -500 -66 -47 -130 -93
-144 -102 -23 -16 -389 -278 -435 -312 -11 -8 -232 -167 -490 -352 -259 -185
-514 -369 -567 -408 -53 -39 -141 -102 -194 -141 -88 -63 -150 -109 -216 -157
-13 -9 -48 -35 -78 -57 -30 -22 -73 -53 -95 -69 -22 -16 -265 -193 -540 -392
-275 -200 -522 -380 -550 -400 -237 -175 -350 -253 -390 -268 -52 -19 -157
-43 -170 -38 -7 2 -15 24 -19 48 -15 88 -20 134 -20 173 1 72 94 336 176 495
53 105 55 108 150 265 36 61 76 129 89 151 21 36 398 663 439 729 8 14 42 69
74 122 33 54 83 134 111 178 29 44 76 118 106 165 266 419 732 1049 1033 1401
17 19 49 57 71 84 22 27 45 53 50 59 6 6 41 47 79 91 89 103 196 224 267 300
30 33 77 84 105 113 227 247 615 633 864 862 56 52 119 110 139 128 20 18 52
48 71 66 19 18 107 94 195 170 88 76 173 150 190 164 16 15 99 84 185 155 85
71 166 139 180 151 14 12 88 73 165 136 77 63 142 117 145 121 3 3 136 110
295 238 160 128 306 246 325 261 19 16 134 105 255 199 121 93 225 174 230
178 6 5 55 42 110 83 55 41 102 77 105 80 5 6 337 248 490 357 298 214 590
410 870 583 118 73 227 141 242 151 15 11 30 19 33 19 3 0 34 18 68 39 55 35
430 251 592 341 33 19 78 44 100 57 22 12 47 26 55 30 8 4 44 23 80 43 36 20
94 53 130 72 36 19 85 46 110 60 76 42 658 358 775 420 339 180 832 419 1185
573 91 40 221 95 290 124 69 28 134 56 145 61 55 26 477 188 685 263 309 111
701 242 958 318 34 11 90 28 125 38 146 45 705 206 787 226 8 3 137 36 285 75
149 38 279 72 290 74 11 2 40 9 65 16 25 7 52 14 60 15 8 2 105 24 215 50 110
26 209 48 220 51 11 2 29 6 40 8 62 14 224 48 245 52 14 3 67 14 118 24 51 11
109 23 130 26 20 3 39 7 42 9 3 2 26 6 50 10 25 3 63 10 85 15 22 5 56 12 75
15 19 3 82 14 140 25 58 10 125 22 150 25 25 3 52 8 60 10 14 4 185 31 255 40
31 4 97 15 126 20 9 2 40 6 70 10 30 3 65 8 79 10 33 6 75 12 130 20 25 3 88
12 140 20 52 7 124 16 160 20 36 3 72 8 80 10 8 2 39 7 69 10 30 4 61 8 70 10
9 1 45 6 81 10 36 4 72 8 80 10 16 3 90 12 159 20 23 3 55 7 70 9 14 3 54 8
88 11 34 3 71 8 82 10 11 2 47 6 80 10 33 3 69 8 81 10 12 2 49 7 83 10 35 3
71 7 82 9 11 2 52 7 90 10 39 4 77 9 85 11 8 2 44 6 80 10 36 3 75 7 85 9 21
4 143 18 185 21 38 3 152 16 180 20 14 2 54 7 90 10 36 3 72 8 80 10 8 2 53 7
100 10 47 4 87 8 90 10 3 1 41 6 85 9 44 4 91 9 105 11 14 2 48 6 75 9 28 3
88 10 135 15 47 6 113 13 148 16 35 4 71 8 80 10 9 1 55 6 102 10 47 4 87 8
90 10 3 2 40 6 83 10 43 3 86 8 95 10 9 1 53 6 96 10 43 4 87 8 97 10 10 2 46
6 81 10 35 3 74 8 88 10 14 2 52 6 85 10 33 3 71 7 85 10 14 2 50 7 80 10 30
3 66 7 80 9 14 3 59 10 100 16 251 39 575 124 806 210 342 128 515 240 663
428 70 88 77 100 120 187 79 161 112 291 116 460 6 236 -51 431 -185 631 -62
92 -227 263 -303 314 -29 19 -54 37 -57 40 -25 28 -254 143 -356 180 -150 54
-405 124 -527 145 -17 3 -48 10 -68 15 -36 10 -100 23 -211 44 -13 3 -56 12
-95 20 -40 9 -86 18 -102 21 -46 8 -348 72 -426 90 -188 43 -354 127 -459 231
-69 69 -137 201 -151 295 -12 73 -13 180 -3 256 14 113 132 552 223 828 12 39
32 102 44 140 12 39 60 187 106 330 92 288 185 583 216 690 12 39 25 81 30 95
4 14 23 81 40 150 60 236 38 404 -70 523 -37 41 -70 55 -137 61 -125 11 -191
50 -320 193 -121 133 -125 136 -259 202 -167 82 -326 100 -524 57 -98 -21
-253 -107 -364 -199 -109 -91 -285 -244 -342 -296 -104 -96 -468 -463 -540
-545 -39 -44 -79 -90 -90 -102 -11 -12 -27 -31 -35 -41 -60 -74 -107 -130
-118 -141 -7 -8 -65 -80 -130 -160 -64 -81 -121 -152 -127 -158 -5 -6 -21 -26
-35 -44 -14 -18 -29 -38 -35 -44 -5 -6 -37 -47 -70 -90 -33 -43 -64 -84 -70
-90 -5 -6 -29 -36 -52 -66 -96 -127 -355 -457 -402 -513 -11 -12 -51 -61 -89
-109 -39 -47 -80 -97 -90 -110 -11 -13 -48 -57 -83 -98 -130 -154 -341 -350
-633 -587 -60 -49 -185 -137 -217 -153 -75 -39 -174 -27 -221 26 -44 51 -90
164 -105 259 -4 22 -7 108 -7 190 0 136 4 211 19 330 10 76 56 296 76 362 12
36 22 73 24 82 6 30 95 279 117 328 12 26 23 53 24 58 4 19 101 230 180 390
244 497 439 761 720 971 108 81 173 119 236 137 49 15 145 14 160 -1 7 -7 -15
-42 -73 -114 -46 -57 -86 -105 -89 -108 -3 -3 -33 -41 -66 -86 -116 -155 -154
-241 -154 -350 0 -126 37 -236 102 -303 52 -53 90 -65 208 -65 155 0 258 41
377 149 133 120 226 271 268 435 28 106 37 195 37 335 -1 354 -184 578 -547
669 -82 21 -264 29 -350 15 -259 -41 -591 -218 -899 -479 -89 -76 -280 -276
-387 -406 -101 -122 -201 -258 -324 -444 -180 -270 -275 -442 -580 -1055 -151
-302 -297 -588 -325 -635 -64 -107 -153 -195 -242 -237 -95 -46 -97 -46 -93
35 2 37 6 123 9 192 7 157 21 237 97 580 17 74 33 146 35 159 3 12 11 51 19
85 8 33 16 73 19 89 3 15 7 35 10 45 3 9 7 28 10 42 3 14 28 138 56 275 28
138 53 268 56 290 3 22 9 63 15 91 12 61 14 73 33 199 20 136 26 175 31 226 3
24 7 67 10 94 11 92 24 280 29 412 11 309 -290 505 -574 372 -189 -88 -331
-218 -474 -433 -81 -123 -326 -513 -326 -520 0 -1 -45 -76 -100 -167 -55 -90
-105 -173 -110 -184 -5 -11 -20 -36 -32 -56 -39 -62 -133 -223 -137 -234 -2
-5 -9 -17 -16 -25 -7 -8 -24 -35 -37 -60 -14 -25 -42 -74 -63 -110 l-38 -64
-13 34 c-15 42 -10 204 10 373 4 29 9 77 11 107 12 153 16 197 20 220 3 14 7
63 10 110 3 47 8 96 10 110 4 31 15 141 20 212 2 29 7 85 11 123 11 114 11
156 -2 232 -24 145 -114 243 -264 287 -139 41 -291 -3 -405 -118 -63 -65 -211
-277 -328 -471 -75 -124 -474 -916 -782 -1550 -97 -201 -457 -922 -487 -975
-13 -25 -38 -70 -55 -100 -49 -89 -83 -149 -138 -245 -29 -49 -63 -110 -77
-135 -14 -25 -40 -72 -58 -104 l-34 -59 -23 29 c-59 72 -66 117 -39 250 2 12
7 45 11 75 3 30 8 61 10 69 2 8 16 88 30 178 13 89 27 176 30 192 6 37 13 79
20 123 3 17 10 57 15 87 5 30 11 69 14 85 2 17 27 167 55 335 29 168 54 319
56 335 2 17 11 68 19 115 8 47 17 103 20 124 4 21 8 48 11 60 2 12 7 43 10 70
3 27 8 52 10 55 1 3 6 31 10 61 3 30 8 62 10 70 2 8 13 76 24 150 12 74 23
144 25 156 2 12 7 45 11 74 4 29 8 62 11 73 19 100 22 181 8 248 -16 82 -52
147 -119 214 -170 170 -398 197 -573 67 -27 -20 -97 -78 -154 -128 -184 -160
-291 -202 -460 -180 -61 7 -103 -5 -144 -42 -40 -36 -160 -140 -183 -158 -13
-10 -28 -24 -35 -29 -6 -6 -51 -46 -101 -90 -164 -144 -301 -290 -361 -387
-15 -24 -30 -45 -33 -48 -11 -8 -168 -254 -207 -322 -19 -35 -44 -79 -56 -98
-11 -19 -51 -93 -88 -165 -282 -543 -502 -1171 -755 -2155 -55 -213 -126 -444
-215 -695 -24 -68 -131 -336 -164 -410 -15 -33 -31 -69 -36 -80 -28 -65 -206
-424 -248 -500 -87 -159 -103 -187 -209 -365 -117 -195 -143 -224 -299 -330
l-102 -69 -67 107 c-103 163 -118 194 -129 268 -4 22 -8 51 -11 64 -8 38 -34
238 -40 305 -4 33 -8 74 -10 90 -8 73 -18 311 -17 424 4 468 60 632 370 1086
53 77 140 205 194 285 53 80 101 150 105 156 4 5 13 19 20 30 31 52 138 220
145 229 41 50 405 633 507 810 51 88 97 167 102 175 13 22 241 482 279 565 17
39 65 149 107 245 41 96 78 184 83 195 37 84 55 128 108 260 65 164 202 528
252 670 17 50 40 113 50 140 71 195 194 648 215 790 4 22 10 56 15 75 7 30 20
108 35 210 2 14 7 50 10 80 3 30 8 66 10 80 26 172 26 758 0 930 -2 14 -7 52
-11 85 -3 33 -8 69 -10 80 -2 10 -6 37 -9 60 -8 50 -43 203 -54 230 -5 11 -14
38 -20 60 -7 22 -19 54 -26 70 -53 120 -80 174 -117 233 -141 226 -287 353
-488 424 -52 19 -232 32 -285 21z m-84 -1486 c54 -110 67 -149 77 -239 14
-129 6 -607 -13 -753 -2 -16 -7 -59 -11 -95 -3 -36 -8 -74 -10 -84 -2 -11 -8
-54 -14 -95 -11 -81 -17 -121 -25 -161 -3 -14 -8 -38 -11 -55 -23 -140 -69
-353 -114 -535 -17 -69 -33 -135 -36 -148 -6 -27 -70 -269 -90 -338 -8 -28
-16 -60 -18 -70 -7 -32 -32 -124 -70 -249 -20 -66 -38 -124 -40 -130 -24 -85
-152 -453 -166 -477 -5 -10 -10 -23 -10 -29 0 -6 -7 -25 -15 -42 -8 -18 -27
-66 -43 -107 -17 -41 -42 -101 -56 -132 -14 -31 -26 -59 -26 -61 0 -8 -79
-176 -158 -337 -129 -262 -343 -634 -386 -669 -6 -5 -21 -8 -33 -5 -19 5 -21
14 -23 97 -6 264 -3 320 26 517 3 25 8 59 10 76 3 30 21 169 29 224 2 14 6 50
10 80 4 30 8 66 10 80 5 36 13 96 20 159 4 30 8 62 10 71 2 9 6 41 9 71 7 61
13 108 20 159 3 19 8 55 11 80 7 51 13 93 20 130 2 14 7 49 10 79 4 30 8 61
10 70 1 9 5 34 9 56 5 33 55 345 73 450 5 30 61 307 68 335 2 8 11 47 19 85 9
39 23 97 31 130 8 33 18 69 20 81 36 158 180 586 347 1029 60 160 141 375 180
478 65 174 75 192 122 241 83 85 171 157 175 143 2 -6 25 -56 52 -110z m12593
-2439 c37 -121 39 -153 21 -258 -33 -194 -121 -528 -175 -670 -12 -30 -26 -68
-31 -85 -5 -16 -13 -39 -18 -50 -5 -11 -28 -67 -51 -125 -103 -250 -254 -530
-433 -800 -145 -218 -224 -311 -311 -364 -48 -29 -207 -108 -211 -104 -2 2
-17 32 -33 68 -79 173 -85 190 -79 222 12 63 18 93 23 110 3 9 7 26 9 37 48
216 143 525 232 751 75 189 222 485 294 590 9 14 54 81 99 150 46 68 99 145
119 171 20 26 45 59 56 75 54 76 231 287 251 301 21 13 169 59 201 62 7 1 23
-35 37 -81z m-10397 -573 c35 -39 46 -98 46 -250 1 -126 -10 -400 -18 -465 -1
-14 -6 -64 -10 -110 -4 -47 -9 -92 -10 -101 -2 -9 -6 -40 -10 -70 -25 -212
-77 -485 -139 -741 -13 -53 -82 -286 -108 -363 -97 -293 -213 -572 -349 -840
-55 -107 -58 -111 -135 -165 -44 -31 -95 -65 -115 -78 l-35 -21 -46 88 -46 88
4 239 c4 295 13 611 18 644 3 14 7 59 11 100 27 323 134 695 382 1325 41 105
93 237 115 295 62 162 97 224 180 325 82 100 95 110 155 123 53 12 84 5 110
-23z"/>
<path d="M19120 34113 c-79 -20 -97 -26 -150 -51 -217 -102 -414 -337 -595
-709 -195 -400 -469 -1305 -641 -2118 -14 -66 -27 -127 -29 -135 -2 -8 -19
-96 -38 -195 -31 -155 -44 -226 -72 -390 -3 -16 -8 -41 -10 -55 -3 -14 -7 -36
-10 -50 -2 -14 -11 -70 -20 -125 -9 -55 -18 -113 -21 -130 -2 -16 -7 -41 -9
-55 -3 -14 -7 -42 -10 -62 -10 -72 -16 -113 -25 -173 -10 -63 -13 -82 -30
-210 -6 -44 -13 -95 -15 -112 -12 -82 -14 -101 -20 -148 -3 -27 -8 -63 -10
-80 -3 -16 -7 -51 -10 -77 -3 -26 -7 -62 -9 -80 -6 -43 -14 -110 -21 -173 -3
-27 -8 -70 -11 -95 -4 -25 -8 -61 -10 -80 -4 -53 -15 -161 -19 -195 -2 -16 -6
-52 -9 -80 -4 -27 -8 -77 -11 -110 -6 -73 -15 -168 -20 -215 -2 -19 -7 -71
-10 -115 -3 -44 -7 -98 -9 -120 -2 -22 -7 -80 -11 -130 -3 -49 -8 -112 -10
-140 -3 -27 -7 -90 -10 -140 -5 -85 -8 -131 -20 -315 -7 -102 -13 -209 -20
-370 -3 -74 -8 -164 -10 -200 -13 -215 -18 -493 -18 -925 0 -422 4 -664 18
-1135 2 -52 6 -194 10 -315 3 -121 8 -247 10 -280 24 -378 24 -755 0 -880 -43
-224 -68 -296 -172 -508 -47 -94 -94 -192 -105 -217 -195 -427 -258 -561 -280
-592 -21 -30 -87 -72 -129 -82 -64 -14 -117 95 -169 353 -19 90 -17 266 5 491
2 19 6 78 9 130 4 52 9 115 12 140 2 25 6 74 9 110 2 36 6 90 9 120 6 63 23
271 31 375 3 39 7 97 10 130 2 33 7 105 10 160 4 55 8 120 10 145 23 281 23
989 1 1190 -5 38 -13 129 -21 225 -18 202 -75 323 -190 402 -52 36 -148 63
-223 63 -91 0 -168 -21 -281 -77 -123 -61 -188 -65 -336 -22 -221 65 -372 70
-539 19 -167 -52 -291 -150 -442 -351 -136 -180 -245 -355 -313 -502 -33 -71
-151 -383 -151 -400 0 -3 -5 -18 -12 -34 -6 -15 -12 -30 -13 -33 0 -3 -22 -68
-47 -145 -91 -277 -150 -477 -214 -723 -33 -129 -101 -426 -110 -487 -3 -16
-10 -47 -15 -68 -6 -21 -12 -50 -14 -65 -3 -24 -35 -183 -49 -252 -3 -13 -8
-42 -11 -65 -3 -22 -8 -47 -10 -55 -2 -8 -7 -35 -10 -60 -4 -24 -8 -47 -10
-50 -2 -3 -6 -23 -9 -45 -4 -22 -11 -65 -16 -95 -5 -30 -12 -73 -15 -95 -3
-22 -8 -56 -12 -75 -3 -19 -7 -39 -7 -45 -7 -57 -19 -144 -22 -159 -2 -11 -8
-56 -14 -100 -6 -45 -13 -94 -15 -111 -2 -16 -7 -61 -10 -100 -3 -38 -8 -80
-10 -93 -2 -12 -7 -62 -10 -110 -4 -48 -9 -100 -11 -117 -25 -200 -25 -1181 0
-1224 2 -3 7 -46 11 -96 3 -49 8 -101 10 -115 2 -14 6 -47 9 -75 14 -109 18
-135 42 -255 26 -131 82 -323 116 -400 52 -116 75 -161 126 -243 117 -190 245
-327 361 -387 107 -54 171 -65 356 -64 196 1 347 46 509 151 84 54 196 164
254 250 40 59 156 287 236 463 154 341 446 1050 446 1085 0 4 6 21 14 38 8 18
17 40 20 50 7 22 22 20 181 -30 121 -38 166 -48 240 -59 216 -30 370 23 513
174 46 48 172 221 172 236 0 3 15 31 34 63 49 84 152 287 228 448 154 325 188
398 188 401 0 2 45 96 100 210 l100 206 28 -24 c242 -196 302 -240 381 -281
87 -45 217 -88 311 -103 70 -11 227 -6 313 10 90 17 240 75 312 119 149 92
321 249 446 407 161 204 249 377 358 705 76 230 214 681 227 740 1 6 20 75 42
155 47 170 98 372 107 420 3 18 8 36 10 40 2 3 6 17 9 31 2 13 11 54 20 90 8
37 17 78 20 90 3 13 12 56 21 94 8 39 20 93 25 120 5 28 13 73 19 102 6 29 13
74 17 100 3 26 8 57 10 68 2 11 6 45 10 75 3 30 8 66 10 80 10 45 12 403 3
475 -11 86 -18 135 -24 155 -2 8 -6 31 -9 50 -15 103 -98 323 -153 406 -156
240 -438 299 -672 143 -91 -60 -239 -233 -339 -394 -41 -67 -182 -376 -182
-400 0 -4 -6 -21 -14 -38 -60 -132 -201 -624 -241 -842 -16 -89 -45 -267 -50
-310 -3 -27 -8 -61 -10 -75 -15 -101 -35 -372 -36 -505 -1 -104 1 -111 63
-283 l42 -114 15 29 c30 57 120 263 146 334 25 69 211 606 258 748 21 62 82
141 109 141 5 0 23 9 38 20 l29 21 34 -54 c39 -61 61 -119 53 -144 -2 -10 -7
-50 -10 -88 -4 -39 -8 -80 -10 -90 -2 -11 -7 -50 -10 -87 -4 -37 -9 -77 -11
-90 -2 -13 -6 -48 -9 -78 -4 -30 -8 -66 -10 -80 -3 -14 -7 -50 -11 -81 -3 -31
-7 -66 -9 -76 -3 -11 -7 -44 -11 -73 -4 -29 -8 -61 -10 -71 -2 -9 -7 -39 -11
-66 -3 -26 -8 -57 -10 -68 -3 -11 -7 -36 -10 -55 -22 -138 -56 -285 -75 -321
-45 -90 -117 -175 -219 -261 -142 -118 -273 -129 -364 -28 -32 35 -76 115 -76
138 0 5 -11 44 -25 88 -54 170 -129 492 -150 647 -4 27 -8 56 -10 65 -16 89
-23 385 -11 497 6 56 27 190 41 260 14 68 86 284 124 370 12 26 61 156 104
275 19 52 94 275 167 495 72 220 138 416 145 435 15 39 174 516 180 540 2 8
35 112 74 230 134 412 378 1197 411 1325 4 17 39 140 78 275 85 297 226 837
267 1028 2 10 15 67 29 127 27 118 34 153 42 200 3 17 9 46 14 65 5 19 12 53
16 75 3 22 8 43 10 46 2 4 6 24 10 45 3 22 9 55 14 74 5 19 11 51 14 70 3 19
8 49 11 65 17 85 54 295 60 330 3 22 7 47 10 55 2 8 6 38 10 65 3 28 10 75 15
105 5 30 11 75 14 100 4 25 8 54 10 65 3 18 12 85 21 170 2 17 6 55 10 85 4
30 8 69 10 85 2 17 6 71 10 120 4 50 9 97 10 106 3 15 14 197 20 334 5 94 5
563 0 630 -8 112 -23 269 -30 314 -2 13 -7 43 -10 65 -8 50 -10 64 -18 96 -3
14 -13 59 -22 100 -47 220 -157 516 -247 668 -70 118 -208 232 -333 276 -124
43 -324 56 -435 29z m0 -1870 c14 -20 30 -41 35 -47 44 -46 67 -118 90 -286 3
-25 8 -56 10 -70 12 -67 33 -243 41 -345 13 -147 7 -547 -11 -770 -2 -22 -6
-80 -10 -130 -3 -49 -8 -101 -10 -115 -2 -14 -6 -54 -10 -90 -3 -36 -8 -81
-10 -100 -3 -19 -7 -57 -10 -85 -3 -27 -8 -61 -10 -75 -2 -14 -11 -77 -20
-140 -8 -63 -17 -126 -20 -140 -2 -14 -6 -41 -9 -60 -3 -19 -13 -75 -21 -125
-9 -49 -18 -103 -21 -120 -3 -16 -16 -84 -29 -150 -13 -66 -25 -131 -28 -145
-74 -401 -300 -1258 -544 -2060 -36 -118 -71 -235 -79 -260 -17 -61 -99 -324
-117 -380 -8 -25 -27 -83 -41 -130 -21 -69 -30 -86 -46 -87 -26 -2 -36 18 -45
97 -4 36 -9 83 -13 105 -11 78 -7 344 13 1030 4 153 15 440 20 565 3 58 7 157
10 220 3 63 7 147 9 185 3 39 7 120 11 180 3 61 7 130 10 155 2 25 7 89 10
144 4 54 8 106 10 115 1 9 6 61 10 116 3 55 8 114 10 130 2 17 7 62 10 100 3
39 8 81 10 95 2 14 7 54 10 90 4 36 9 79 11 95 3 17 6 50 9 75 2 25 6 54 9 65
2 11 7 49 11 85 4 36 9 74 11 85 2 11 6 40 9 65 3 25 10 74 16 110 6 36 13 79
15 95 2 17 7 44 10 60 9 48 13 72 39 215 14 74 27 146 30 160 3 14 8 39 10 55
3 17 8 37 10 45 2 8 6 26 9 40 14 72 75 341 136 600 89 376 180 616 258 678
22 17 43 32 46 32 3 0 27 14 53 30 26 17 52 30 57 30 6 0 22 -17 36 -37z
m-3859 -7778 c55 -46 68 -70 88 -166 36 -170 59 -303 76 -454 6 -45 6 -411 1
-520 -5 -105 -17 -275 -21 -315 -2 -19 -6 -66 -9 -105 -4 -38 -8 -86 -11 -105
-2 -19 -7 -60 -10 -90 -4 -30 -8 -66 -10 -80 -2 -14 -7 -50 -10 -80 -4 -30 -9
-62 -10 -70 -2 -8 -6 -37 -9 -65 -6 -43 -19 -125 -41 -250 -3 -16 -10 -57 -16
-90 -13 -77 -42 -223 -69 -350 -12 -55 -23 -108 -25 -118 -2 -10 -6 -26 -9
-35 -3 -9 -8 -28 -10 -42 -33 -159 -140 -574 -176 -688 -40 -123 -118 -284
-227 -467 -53 -90 -74 -112 -123 -126 -33 -10 -43 -9 -64 5 -14 9 -33 27 -42
41 -14 22 -42 111 -49 160 -2 11 -10 58 -18 105 -9 47 -19 105 -22 130 -3 25
-8 56 -10 70 -2 14 -9 61 -15 105 -6 44 -13 91 -15 105 -23 141 -23 172 0 510
1 25 6 95 9 155 4 61 9 133 11 160 2 28 7 86 10 130 3 44 8 103 10 130 3 28
10 104 15 170 6 66 13 140 16 165 9 88 14 125 19 160 2 19 7 58 11 85 12 99
30 218 49 322 3 16 8 44 11 63 3 19 12 64 20 100 7 36 15 76 18 90 6 40 64
265 96 375 47 162 196 559 289 768 10 23 21 49 24 58 8 23 70 69 113 84 47 16
94 5 135 -30z"/>
<path d="M9408 24625 c-2 -1 -25 -5 -53 -8 -49 -5 -119 -22 -465 -111 -499
-127 -740 -223 -1085 -431 -374 -225 -810 -512 -1120 -739 -11 -8 -51 -37 -90
-65 -38 -27 -74 -54 -80 -58 -5 -5 -37 -29 -70 -53 -98 -73 -397 -302 -431
-329 -36 -30 -51 -42 -114 -91 -25 -19 -56 -45 -70 -56 -203 -173 -219 -186
-354 -308 -290 -259 -669 -646 -921 -941 -33 -39 -62 -72 -65 -75 -42 -38
-510 -644 -600 -776 -8 -12 -80 -116 -159 -230 -145 -209 -252 -366 -271 -394
-107 -163 -446 -654 -522 -755 -174 -233 -219 -296 -279 -385 -35 -52 -68
-103 -74 -112 -48 -81 -105 -188 -170 -323 -139 -286 -315 -656 -315 -660 0
-1 -34 -73 -75 -160 -41 -86 -75 -158 -75 -160 0 -1 -20 -45 -44 -96 -54 -115
-171 -374 -278 -614 -44 -99 -91 -203 -104 -231 -130 -290 -429 -1012 -484
-1172 -10 -31 -33 -94 -49 -140 -38 -102 -116 -338 -164 -492 -61 -196 -207
-723 -223 -810 -3 -14 -11 -50 -19 -80 -8 -30 -30 -127 -50 -215 -45 -199 -43
-189 -55 -255 -6 -30 -12 -64 -14 -75 -2 -11 -16 -76 -29 -145 -33 -160 -73
-368 -87 -445 -10 -60 -15 -87 -25 -135 -9 -47 -16 -85 -20 -120 -3 -19 -7
-42 -10 -50 -4 -15 -89 -520 -100 -595 -3 -22 -8 -51 -10 -65 -3 -14 -7 -43
-10 -65 -3 -22 -7 -53 -10 -70 -3 -16 -7 -46 -9 -65 -3 -19 -10 -71 -16 -115
-6 -44 -13 -96 -16 -115 -3 -19 -7 -53 -9 -75 -9 -74 -17 -140 -20 -165 -2
-14 -6 -54 -10 -90 -3 -36 -8 -85 -10 -110 -10 -102 -14 -149 -20 -215 -3 -38
-8 -88 -10 -110 -4 -35 -7 -99 -20 -340 -26 -489 -26 -1594 0 -1830 2 -16 6
-73 10 -125 3 -52 8 -108 10 -125 2 -16 7 -59 10 -95 3 -36 10 -101 15 -145 6
-44 12 -98 15 -120 3 -22 10 -71 16 -110 14 -93 16 -104 23 -145 3 -19 8 -48
11 -65 2 -16 7 -41 10 -55 2 -14 7 -37 10 -52 3 -16 7 -40 10 -55 55 -285 181
-736 296 -1053 74 -204 195 -461 275 -588 19 -29 34 -55 34 -57 0 -3 23 -38
52 -78 289 -403 647 -657 1033 -732 248 -48 542 -7 830 118 129 56 339 176
425 244 300 238 480 431 731 788 113 161 281 417 337 517 11 18 43 74 72 123
138 237 346 638 453 875 13 30 39 85 56 123 17 37 31 69 31 72 0 2 13 32 29
67 124 265 352 854 587 1513 42 116 86 239 99 275 26 71 91 258 135 385 137
399 148 423 213 454 37 18 60 21 163 20 231 -3 461 65 600 177 54 43 135 129
175 184 18 24 36 49 41 55 4 5 43 57 86 115 43 58 115 152 161 210 68 88 321
452 321 463 0 2 24 44 53 93 115 190 268 494 383 762 26 59 55 126 65 149 11
24 75 182 142 352 l123 309 32 -28 c17 -15 70 -63 117 -106 112 -103 181 -149
261 -173 62 -18 150 -22 211 -7 123 28 380 236 526 425 111 142 304 509 454
859 44 103 230 581 238 612 2 8 36 98 75 200 118 306 778 2072 1152 3080 82
223 153 414 158 425 5 11 29 76 55 145 53 144 144 332 157 324 26 -16 160
-237 221 -363 200 -418 350 -796 461 -1164 36 -119 100 -366 110 -422 2 -16
10 -55 16 -85 11 -53 15 -72 25 -135 3 -16 7 -39 9 -50 4 -25 14 -94 22 -160
3 -27 7 -61 10 -75 2 -14 6 -60 10 -103 3 -43 7 -88 9 -99 27 -137 27 -855 0
-1019 -2 -13 -6 -42 -9 -64 -33 -255 -123 -613 -191 -762 -8 -17 -15 -34 -15
-37 0 -7 -40 -96 -92 -206 -73 -153 -127 -223 -217 -281 -60 -39 -111 -39
-170 0 -86 57 -136 132 -145 217 -10 87 -15 148 -21 214 -3 36 -7 90 -10 120
-3 30 -7 100 -10 155 -3 55 -7 134 -10 175 -4 75 -16 357 -19 458 -2 73 14
229 39 363 2 10 -11 24 -34 37 l-37 21 -104 -72 c-124 -84 -136 -96 -206 -205
-320 -493 -498 -913 -539 -1268 -4 -33 -9 -70 -11 -84 -6 -39 -5 -280 1 -330
6 -43 21 -132 29 -175 68 -349 335 -786 587 -961 135 -95 302 -164 490 -205
155 -34 430 -32 564 3 233 61 483 215 697 429 239 240 438 569 633 1049 97
239 224 640 259 820 3 14 7 36 10 50 14 65 36 179 42 215 3 22 7 42 9 45 2 3
7 33 10 65 4 33 9 62 10 65 2 3 6 37 10 75 3 39 8 81 10 95 36 235 42 918 10
1185 -2 17 -7 59 -10 95 -3 36 -8 72 -10 80 -2 8 -7 35 -10 60 -5 39 -17 108
-32 190 -2 14 -9 45 -14 70 -6 25 -13 56 -15 70 -14 77 -82 318 -133 470 -110
325 -265 661 -453 975 -84 141 -136 223 -148 235 -3 3 -30 41 -60 85 -89 131
-307 416 -340 445 -3 3 -28 32 -55 65 -28 33 -57 67 -65 75 -8 8 -44 49 -80
90 -36 41 -70 80 -75 85 -6 6 -45 48 -86 95 -180 206 -202 227 -322 311 -86
59 -102 67 -123 58 -14 -5 -30 -9 -35 -9 -6 0 -8 64 -4 178 10 350 17 433 51
632 32 187 24 145 88 453 31 147 58 277 60 290 19 102 36 199 41 232 3 23 7
51 10 63 4 23 34 232 40 287 26 216 32 309 30 470 -4 268 -41 422 -140 576
-217 338 -679 404 -1025 146 -78 -58 -274 -258 -345 -352 -206 -273 -366 -655
-410 -979 -23 -170 -26 -455 -6 -591 7 -44 15 -100 18 -125 8 -64 83 -363 94
-375 5 -5 9 -16 9 -24 0 -45 117 -326 223 -536 190 -378 207 -417 232 -547 24
-125 9 -304 -35 -403 -18 -42 -195 -497 -243 -625 -27 -74 -61 -164 -74 -200
-74 -199 -207 -565 -254 -700 -10 -30 -23 -64 -28 -75 -5 -11 -37 -99 -71
-195 -34 -96 -74 -209 -90 -250 -16 -41 -47 -127 -70 -190 -22 -63 -54 -151
-70 -195 -16 -44 -50 -138 -75 -210 -105 -292 -212 -573 -265 -690 -13 -28
-32 -70 -43 -95 -25 -57 -192 -401 -282 -583 l-69 -138 -49 4 c-26 3 -50 6
-52 8 -2 2 -6 20 -9 39 -3 19 -12 66 -20 105 -9 40 -13 101 -11 145 4 79 7
104 31 290 8 63 18 133 21 155 5 42 36 199 102 510 36 176 47 228 55 280 2 11
6 34 9 50 4 17 9 46 12 65 3 19 10 60 15 90 15 89 20 124 44 291 6 42 17 151
21 194 26 325 26 602 0 730 -10 50 -26 108 -36 129 -11 22 -19 44 -19 49 0 24
-115 180 -166 223 -148 130 -337 203 -529 207 -267 4 -586 -158 -1010 -512
-100 -84 -403 -383 -480 -475 -28 -32 -55 -64 -60 -70 -6 -6 -47 -56 -90 -111
-44 -55 -82 -102 -86 -105 -3 -3 -50 -68 -105 -145 -196 -274 -360 -535 -560
-890 -19 -33 -74 -139 -123 -235 -78 -154 -107 -216 -181 -385 -115 -261 -266
-711 -360 -1070 -35 -134 -95 -389 -106 -455 -2 -14 -11 -54 -19 -90 -7 -36
-16 -85 -20 -110 -3 -25 -8 -53 -11 -62 -7 -24 -52 -266 -69 -368 -3 -19 -10
-57 -15 -85 -5 -27 -12 -70 -15 -95 -4 -25 -13 -85 -20 -135 -17 -104 -21
-131 -35 -240 -6 -44 -12 -91 -14 -105 -3 -14 -7 -54 -11 -89 -3 -36 -8 -79
-10 -95 -3 -17 -7 -58 -10 -91 -3 -33 -7 -82 -10 -110 -3 -27 -8 -79 -10 -115
-2 -36 -8 -117 -12 -180 -15 -226 -7 -959 11 -989 2 -3 7 -40 11 -81 4 -41 9
-84 11 -95 7 -37 7 -219 0 -265 -7 -41 -40 -215 -50 -265 -4 -16 -61 -240 -81
-315 -8 -30 -53 -176 -68 -222 -32 -94 -307 -778 -362 -903 -8 -16 -37 -86
-65 -155 -28 -69 -62 -149 -76 -178 -13 -29 -24 -54 -24 -57 0 -10 -201 -448
-276 -600 -76 -155 -216 -420 -274 -520 -12 -22 -34 -60 -48 -85 -35 -62 -230
-373 -320 -510 -145 -221 -321 -465 -435 -605 -27 -33 -66 -80 -86 -105 -20
-25 -65 -74 -101 -109 -232 -228 -490 -277 -705 -135 -172 113 -328 393 -382
683 -2 14 -6 27 -8 31 -4 6 -71 297 -80 345 -3 17 -8 46 -11 65 -3 19 -8 38
-9 41 -4 6 -44 231 -51 284 -2 17 -8 55 -14 85 -5 30 -12 73 -15 95 -3 23 -7
50 -9 60 -2 11 -7 47 -10 80 -4 33 -9 71 -11 85 -3 14 -7 48 -9 75 -3 28 -8
75 -11 105 -12 109 -14 136 -20 200 -3 36 -8 94 -11 130 -3 36 -7 90 -9 120
-6 110 -17 327 -21 405 -4 120 -4 782 1 920 4 139 15 375 20 455 2 30 6 107
10 170 3 63 8 133 10 155 2 22 7 76 10 120 4 44 8 96 10 115 3 19 7 69 10 110
3 41 8 91 10 110 2 19 6 69 10 110 4 41 8 86 10 100 2 14 6 50 10 80 14 124
26 226 40 320 2 14 7 50 10 80 3 30 7 62 10 70 2 8 6 38 10 65 5 44 55 367 70
450 3 17 8 46 11 65 3 19 8 46 10 60 3 14 16 84 30 157 14 73 27 145 30 160
18 99 115 550 135 623 5 19 29 118 55 220 64 261 122 472 208 760 70 230 320
991 390 1185 18 50 50 137 70 195 39 107 220 597 262 705 12 33 39 103 59 155
19 52 40 104 45 115 10 21 22 52 115 280 31 77 63 154 70 170 8 17 30 70 50
119 20 49 41 96 46 105 8 14 30 66 34 81 9 33 276 575 323 655 9 17 39 71 66
120 188 347 523 867 909 1410 165 231 188 263 443 605 96 129 183 246 192 259
160 221 508 642 682 825 139 146 520 518 659 644 40 37 90 83 110 102 21 19
59 55 87 79 27 24 72 65 99 90 28 26 106 96 175 156 69 61 127 112 130 115 3
3 39 34 80 70 41 36 77 68 80 71 5 6 220 191 254 219 10 8 23 20 30 25 36 34
197 153 292 217 282 192 565 331 825 408 84 24 182 49 219 56 14 2 45 9 70 14
111 24 246 35 510 44 150 5 182 18 265 109 132 145 157 239 95 356 -77 143
-270 271 -475 313 -46 9 -230 19 -237 13z m2155 -2183 c43 -47 61 -150 60
-352 0 -88 -10 -250 -18 -302 -2 -13 -6 -45 -9 -73 -11 -95 -16 -120 -41 -246
-14 -70 -41 -177 -61 -239 -41 -130 -46 -131 -93 -12 -71 179 -101 363 -102
622 -2 359 91 618 222 620 14 0 33 -8 42 -18z m-3455 -5119 l47 -98 0 -200
c-1 -192 -11 -463 -19 -515 -3 -14 -7 -56 -10 -95 -4 -38 -8 -81 -11 -95 -2
-14 -7 -52 -10 -85 -5 -52 -11 -98 -41 -280 -2 -16 -7 -41 -9 -55 -12 -58 -15
-77 -20 -105 -47 -270 -155 -671 -318 -1175 -6 -19 -12 -37 -12 -40 -4 -27
-221 -674 -321 -960 -157 -445 -202 -546 -387 -865 -39 -66 -76 -132 -84 -147
-33 -64 -149 -135 -202 -123 -57 12 -115 100 -130 197 -24 152 -35 651 -18
833 4 44 10 109 12 145 3 36 8 83 10 105 2 22 7 67 10 100 6 55 17 155 31 267
2 24 7 52 9 64 3 12 7 39 10 60 17 114 50 303 72 409 13 66 26 131 29 145 3
14 7 33 10 42 3 9 7 27 9 40 39 201 191 699 308 1008 57 152 220 518 267 600
8 14 15 27 15 30 4 23 353 649 392 703 19 26 56 62 81 79 41 29 206 107 225
108 4 0 29 -44 55 -97z"/>
</g>
</svg>
